<?xml version="1.0" encoding="iso-8859-1"?>
<!-- Generator: Adobe Illustrator 19.0.0, SVG Export Plug-In . SVG Version: 6.00 Build 0)  -->
<svg version="1.1"
     id="Layer_1"
	 xmlns="http://www.w3.org/2000/svg"
	 xmlns:xlink="http://www.w3.org/1999/xlink"
	 x="0px"
	 y="0px"
	 viewBox="0 0 300 300"
	 style="background-color: green"
	 xml:space="preserve">
	<g>
		<!-- Body -->
		<path fill="#e2574c"
			  d="M 134 0.1
			     C 63.1 3.6 8.8 64 8.8 134.9
				 v 66.5
				 l 0 0
				 c 0 15.8 0 48.1 0 65.6
				 c 0 6.1 6.1 9.6 11.4 6.1
				 l 20.1 -12.3
				 c 7.9 -4.4 17.5 -4.4 25.4 0
				 l 18.4 10.5
				 c 7.9 4.4 17.5 4.4 25.4 0
				 l 18.4 -10.5
				 c 7.9 -4.4 17.5 -4.4 25.4 0
				 l 18.4 10.5
				 c 7.9 4.4 17.5 4.4 25.4 0
				 l 18.4 -10.5
				 c 7.9 -4.4 17.5 -4.4 25.4 0
				 l 19.3 11.4
				 c 5.3 2.6 11.4 -0.9 11.4 -6.1
				 c 0 -18.4 0 -50.8 0 -65.6
				 l 0 0
				 v -70
				 C 271.3 57 209.2 -3.4 134 0.1
				 z" />

		<!-- Left Eye -->
		<path fill="#e4e7e7"
		      d="M 188.2 113.9
			     c -16.6 0 -30.6 14 -30.6 30.6
				 s 14 30.6 30.6 30.6
				 s 30.6 -14 30.6 -30.6
				 S 204.8 113.9 188.2 113.9
				 z
				 M 92 113.9
				 c -16.6 0 -30.6 14 -30.6 30.6
				 s 14 30.6 30.6 30.6
				 s 30.6 -14 30.6 -30.6
				 S 108.6 113.9 92 113.9
				 z" />

		<!-- Right Eye -->
		<path fill="#324d5b"
		      d="M 188.2 131.4
			     c -7 0 -13.1 6.1 -13.1 13.1
				 c 0 7 6.1 13.1 13.1 13.1
				 s 13.1 -6.1 13.1 -13.1
				 C 201.3 137.5 195.2 131.4 188.2 131.4
				 z
				 M 92 131.4
				 c -7 0 -13.1 6.1 -13.1 13.1
				 c 0 7 6.1 13.1 13.1 13.1
				 c 7 0 13.1 -6.1 13.1 -13.1
				 C 105.1 137.5 99 131.4 92 131.4
				 z" />
	</g>
</svg>
