<svg xmlns="http://www.w3.org/2000/svg"
     xmlns:xlink="http://www.w3.org/1999/xlink"
     viewBox="0 0 1280 640"
	 width="1280"
	 height="640">
	<g transform="matrix(1.7, 0, 0, 1.7, 416.62, 23.47)">
		<!-- Body -->
		<path fill="#725cb1"
			  d="M 125.2 0.0
			     C 35 0 0 64 0 125.2
				 v 150
				 l 0 0
				 c 0 15.8 0 48.1 0 65.6
				 c 0 6.1 6.1 9.6 11.4 6.1
				 l 20.1 -12.3
				 c 7.9 -4.4 17.5 -4.4 25.4 0
				 l 18.4 10.5
				 c 7.9 4.4 17.5 4.4 25.4 0
				 l 18.4 -10.5
				 c 7.9 -4.4 17.5 -4.4 25.4 0
				 l 18.4 10.5
				 c 7.9 4.4 17.5 4.4 25.4 0
				 l 18.4 -10.5
				 c 7.9 -4.4 17.5 -4.4 25.4 0
				 l 19.3 11.4
				 c 5.3 2.6 11.4 -0.9 11.4 -6.1
				 c 0 -18.4 0 -50.8 0 -65.6
				 l 0 -83.5
				 v -66
				 C 262.5 57 209.2 -3.4 125.2 0.0
				 z" />

		<!-- Eyes -->
		<g transform="translate(54.1, 100)">
			<!-- Left Eye -->
			<g>
				<!-- White -->
				<ellipse fill="white"
						cx="32"
						cy="32"
						rx="24"
						ry="24" />

				<!-- Pupil -->
				<ellipse fill="#324d5b"
						cx="32"
						cy="32"
						rx="13"
						ry="13" />
			</g>

			<!-- Right Eye -->
			<g>
				<!-- White -->
				<ellipse fill="white"
						cx="128"
						cy="32"
						rx="24"
						ry="24" />

				<!-- Pupil -->
				<ellipse fill="#324d5b"
						cx="128"
						cy="32"
						rx="13"
						ry="13" />
			</g>
		</g>
	</g>
</svg>
