<svg viewBox="0 0 1000 1000"
	 style="background-color: green"
	 xmlns="http://www.w3.org/2000/svg"
	 xmlns:xlink="http://www.w3.org/1999/xlink">
	<g transform="matrix(2.5, 0, 0, 2.5, 0, 0)">
		<!-- Body -->
		<path fill="#e2574c"
			  d="M 125.2 0.0
			     C 35 0 0 64 0 125.2
				 v 150
				 l 0 0
				 c 0 15.8 0 48.1 0 65.6
				 c 0 6.1 6.1 9.6 11.4 6.1
				 l 20.1 -12.3
				 c 7.9 -4.4 17.5 -4.4 25.4 0
				 l 18.4 10.5
				 c 7.9 4.4 17.5 4.4 25.4 0
				 l 18.4 -10.5
				 c 7.9 -4.4 17.5 -4.4 25.4 0
				 l 18.4 10.5
				 c 7.9 4.4 17.5 4.4 25.4 0
				 l 18.4 -10.5
				 c 7.9 -4.4 17.5 -4.4 25.4 0
				 l 19.3 11.4
				 c 5.3 2.6 11.4 -0.9 11.4 -6.1
				 c 0 -18.4 0 -50.8 0 -65.6
				 l 0 -83.5
				 v -66
				 C 262.5 57 209.2 -3.4 125.2 0.0
				 z" />

		<!-- Left Eye -->
		<g>
			<!-- White -->
			<ellipse fill="#e4e7e7"
					 cx="92"
					 cy="124"
					 rx="32"
					 ry="32" />

			<!-- Pupil -->
			<ellipse fill="#324d5b"
					 cx="92"
					 cy="124"
					 rx="13"
					 ry="13" />
		</g>

		<!-- Right Eye -->
		<g>
			<!-- White -->
			<ellipse fill="#e4e7e7"
					 cx="188"
					 cy="124"
					 rx="32"
					 ry="32" />

			<!-- Pupil -->
			<ellipse fill="#324d5b"
					 cx="188"
					 cy="124"
					 rx="13"
					 ry="13" />
		</g>

	</g>
</svg>
